:SAMPLES-PER-SECOND 30
:FULLY-SPECIFIED
:DEGREES
317
root  -3.145 39.8038 -1.13335 -1.73046 15.3239 2.72214
RightUpLeg  -4.0813 -7.60255 -7.76661
RightLeg  10.3322 -6.76749 -3.69837
RightFoot  -0.587564 -0.689406 6.15912
RightToes  1.74624e-010 -3.18055e-015 -2.98177e-016
Spine  -1.74609 2.64912 2.55735
Spine1  10.5432 5.45675 -9.45549
HEad  -18.3713 -6.7795 9.72786
LeftShoulder1  -3.88251e-019 9.70628e-020 -3.87848e-018
LeftArm  5.48279 63.7312 -55.7706
LeftForeArm  -35.6303 -51.6952 12.4356
LeftHand  -1.06619 -2.79293 16.0317
RightShoulder  7.5771 10.5118 35.8211
RightArm  33.389 -52.4293 8.25709
RightForeArm  -7.33787 45.4317 -27.1447
RightHand  -0.715445 3.22686 -9.57178
LeftUpLeg  -2.72236 -5.69212 -3.90019
LeftLeg  8.10066 -16.6514 2.46147
LeftFoot  -6.84436 0.213518 -4.24701
LeftToes  7.37594e-011 2.64622e-011 -6.25182e-011
318
root  -3.71927 39.8401 -0.798102 -2.00996 16.7399 1.7988
RightUpLeg  -2.92564 -6.81558 -6.18259
RightLeg  10.1393 -9.28728 -3.36987
RightFoot  -1.72861 -0.622614 6.14768
RightToes  1.74624e-010 -3.18055e-015 -2.98177e-016
Spine  -2.01119 2.54298 4.57932
Spine1  10.648 5.54759 -10.3521
HEad  -18.0338 -6.62651 8.72051
LeftShoulder1  -3.88251e-019 9.70628e-020 -3.87848e-018
LeftArm  8.33226 64.5164 -53.4934
LeftForeArm  -38.9911 -59.7306 17.3009
LeftHand  -1.17573 -3.77983 15.7116
RightShoulder  7.52602 10.4815 35.6305
RightArm  36.8027 -53.2668 5.88768
RightForeArm  -13.8009 51.4774 -33.527
RightHand  -0.958294 4.27415 -11.4329
LeftUpLeg  -2.33509 -5.27807 -2.12561
LeftLeg  7.23628 -18.5365 2.8735
LeftFoot  -6.60507 0.279981 -5.25282
LeftToes  7.37594e-011 2.64622e-011 -6.25182e-011
319
root  -4.30582 39.8613 -0.482587 -2.40773 18.3323 0.521864
RightUpLeg  -1.80284 -5.54655 -4.12712
RightLeg  9.63029 -12.4979 -2.85185
RightFoot  -2.27254 -0.503058 5.23957
RightToes  1.74624e-010 -3.18055e-015 -2.98177e-016
Spine  -1.95307 2.23779 5.77007
Spine1  10.2131 4.99627 -9.62929
HEad  -17.2684 -6.10575 7.4419
LeftShoulder1  -3.88251e-019 9.70628e-020 -3.87848e-018
LeftArm  8.79647 65.6428 -53.5601
LeftForeArm  -45.7083 -67.7835 25.5866
LeftHand  -1.24033 -4.6222 15.1426
RightShoulder  7.40375 10.4285 35.1279
RightArm  40.7658 -53.4533 3.36208
RightForeArm  -21.7233 57.1233 -41.9363
RightHand  -1.36947 5.88076 -14.0044
LeftUpLeg  -2.34953 -5.38413 -0.0100052
LeftLeg  6.8634 -20.3963 3.29357
LeftFoot  -6.63314 0.31111 -5.82431
LeftToes  7.37594e-011 2.64622e-011 -6.25182e-011
320
root  -4.91346 39.8176 -0.21142 -2.67209 19.8643 -0.58986
RightUpLeg  -1.45795 -4.53713 -2.02415
RightLeg  9.94963 -15.0528 -2.98286
RightFoot  -2.9643 -0.406331 4.5476
RightToes  1.74624e-010 -3.18055e-015 -2.98177e-016
Spine  -1.75224 1.91771 5.79199
Spine1  9.6358 4.1218 -7.41628
HEad  -16.7315 -5.55605 6.31028
LeftShoulder1  -3.88251e-019 9.70628e-020 -3.87848e-018
LeftArm  7.5257 66.1262 -55.8908
LeftForeArm  -60.1297 -74.7104 40.6506
LeftHand  -1.27449 -5.22064 14.6656
RightShoulder  7.29574 10.3826 34.678
RightArm  44.6972 -52.6203 1.06021
RightForeArm  -33.3688 62.1097 -53.3826
RightHand  -1.88717 7.16055 -17.313
LeftUpLeg  -3.0326 -6.96529 2.07992
LeftLeg  7.38234 -20.7969 3.38795
LeftFoot  -6.98225 0.321354 -6.37125
LeftToes  7.37594e-011 2.64622e-011 -6.25182e-011
321
root  -5.52117 39.688 0.00341383 -2.96018 20.9248 -1.49429
RightUpLeg  -1.97905 -4.02858 -0.148329
RightLeg  11.7647 -16.612 -3.92216
RightFoot  -4.47714 -0.324319 4.33948
RightToes  1.74624e-010 -3.18055e-015 -2.98177e-016
Spine  -1.47778 1.71838 5.61881
Spine1  9.46682 3.4119 -4.9931
HEad  -16.983 -4.98729 5.61573
LeftShoulder1  -3.88251e-019 9.70628e-020 -3.87848e-018
LeftArm  6.08149 65.044 -59.1402
LeftForeArm  -87.1257 -79.0488 67.8564
LeftHand  -1.34143 -5.87361 14.5214
RightShoulder  7.26097 10.3596 34.5505
RightArm  47.1889 -50.8274 0.140816
RightForeArm  -49.4474 65.7269 -67.9857
RightHand  -2.39007 8.03794 -20.4256
LeftUpLeg  -4.23043 -10.3517 4.31612
LeftLeg  9.14191 -18.5758 2.7473
LeftFoot  -7.68547 0.323115 -7.28187
LeftToes  7.37594e-011 2.64622e-011 -6.25182e-011
322
root  -6.09589 39.5012 0.174903 -3.67588 21.3734 -2.3592
RightUpLeg  -2.65058 -3.81738 1.53123
RightLeg  14.423 -17.3295 -5.23021
RightFoot  -6.31608 -0.236036 4.14215
RightToes  1.74624e-010 -3.18055e-015 -2.98177e-016
Spine  -0.963841 1.58281 6.07797
Spine1  9.90373 3.01325 -3.33022
HEad  -18.0591 -4.21353 5.2607
LeftShoulder1  -3.88251e-019 9.70628e-020 -3.87848e-018
LeftArm  5.33383 62.4068 -62.275
LeftForeArm  -119.045 -79.5952 100.737
LeftHand  -1.42332 -6.69441 14.3381
RightShoulder  7.24953 10.3454 34.5231
RightArm  47.726 -48.6799 1.28015
RightForeArm  -66.4441 67.4497 -83.6701
RightHand  -2.96487 9.1022 -23.3722
LeftUpLeg  -5.32542 -13.9531 6.77262
LeftLeg  11.7718 -15.6731 1.49674
LeftFoot  -8.76849 0.269512 -7.72441
LeftToes  7.37594e-011 2.64622e-011 -6.25182e-011
323
root  -6.61423 39.3 0.324285 -4.8692 21.3146 -3.11525
RightUpLeg  -2.91167 -4.06944 2.99325
RightLeg  17.0319 -16.9812 -6.51333
RightFoot  -7.90895 -0.155561 3.78378
RightToes  1.74624e-010 -3.18055e-015 -2.98177e-016
Spine  -0.110156 1.35792 6.96039
Spine1  10.6557 2.7452 -2.37599
HEad  -19.4853 -3.11846 4.95863
LeftShoulder1  -3.88251e-019 9.70628e-020 -3.87848e-018
LeftArm  4.9829 58.9046 -65.3187
LeftForeArm  -138.76 -77.9518 121.813
LeftHand  -1.51249 -7.27016 14.5164
RightShoulder  7.1852 10.3229 34.2416
RightArm  47.1389 -46.5543 4.34706
RightForeArm  -79.2298 67.5918 -96.7606
RightHand  -3.83421 10.3186 -27.6835
LeftUpLeg  -5.77343 -15.1671 8.79991
LeftLeg  14.4636 -15.3028 0.365988
LeftFoot  -10.035 0.163916 -7.1221
LeftToes  7.37594e-011 2.64622e-011 -6.25182e-011
